<?xml version="1.0" encoding="UTF-8"?>
<svg version="1.1" xmlns="http://www.w3.org/2000/svg" width="1000" height="1000">
<path d="M0 0 C1.28845825 -0.00067474 2.5769165 -0.00134949 3.90441895 -0.00204468 C53.48869673 0.03912805 101.78464395 7.31595748 149.125 22.25 C150.6107251 22.71575439 150.6107251 22.71575439 152.12646484 23.19091797 C175.2210689 30.49117088 197.25170491 39.88640282 219.125 50.25 C219.99898437 50.66362793 220.87296875 51.07725586 221.7734375 51.50341797 C241.88195892 61.0975029 260.79324428 72.61747332 279.125 85.25 C280.19741943 85.98234863 280.19741943 85.98234863 281.29150391 86.72949219 C291.37660013 93.62874404 300.96744186 100.97673398 310.36035156 108.78955078 C312.84370498 110.8448109 315.36245214 112.85560265 317.875 114.875 C322.79201795 118.8973425 327.4588579 123.14839072 332.10546875 127.4765625 C334.31251173 129.52763071 336.57385031 131.50176537 338.859375 133.46484375 C343.85474425 137.81883957 348.51420719 142.493077 353.1875 147.1875 C354.04666016 148.04279297 354.90582031 148.89808594 355.79101562 149.77929688 C360.77824694 154.7741481 365.54792489 159.87833837 370.125 165.25 C371.0981222 166.36791588 372.07204973 167.48513138 373.046875 168.6015625 C410.78216109 212.15999213 439.82880226 261.8139368 461.125 315.25 C461.44839355 316.05131348 461.77178711 316.85262695 462.10498047 317.67822266 C481.86058399 366.79365652 493.11636604 423.09110953 493.328125 476.08203125 C493.33513931 477.2646907 493.34215363 478.44735016 493.34938049 479.66584778 C493.36679269 483.46477105 493.37323365 487.26353828 493.375 491.0625 C493.37601212 493.01225739 493.37601212 493.01225739 493.37704468 495.00140381 C493.36086293 514.62064049 492.83958904 533.80294895 490.125 553.25 C489.95339355 554.5376123 489.78178711 555.82522461 489.60498047 557.15185547 C485.81015696 585.38185485 479.68168573 613.06993944 471.125 640.25 C470.82513184 641.21389648 470.52526367 642.17779297 470.21630859 643.17089844 C455.16489261 691.19852617 432.10046134 736.17889982 403.125 777.25 C402.47402344 778.17554688 401.82304688 779.10109375 401.15234375 780.0546875 C390.89042504 794.39087118 379.85677619 808.09677718 368.125 821.25 C366.87783203 822.66539062 366.87783203 822.66539062 365.60546875 824.109375 C359.44099256 830.98252325 352.95286526 837.523463 346.4375 844.0625 C345.54611328 844.95855957 344.65472656 845.85461914 343.73632812 846.77783203 C338.69237572 851.80957829 333.54531929 856.62805055 328.125 861.25 C327.04183288 862.19922625 325.95975187 863.14969369 324.87890625 864.1015625 C315.93521657 871.90208425 306.62988189 879.14857479 297.125 886.25 C296.47354004 886.73887695 295.82208008 887.22775391 295.15087891 887.73144531 C261.72053334 912.77219944 224.955297 933.4600402 186.19995117 949.01367188 C183.9930204 949.90099998 181.79054996 950.79945232 179.59106445 951.70507812 C170.91336619 955.26221878 162.15303815 958.35719247 153.1875 961.125 C152.16811844 961.44132385 152.16811844 961.44132385 151.12814331 961.76403809 C108.12185282 975.05523121 63.17401228 984.2947899 18.03125 984.453125 C16.72385864 984.45882507 15.41646729 984.46452515 14.06945801 984.47039795 C11.31306585 984.48080637 8.5567019 984.48671211 5.80029297 984.49023438 C3.04527212 984.49457413 0.29057239 984.50830946 -2.46435547 984.53125 C-28.19695926 984.74075847 -53.48126746 982.93002423 -78.875 978.5 C-79.98208817 978.31108185 -79.98208817 978.31108185 -81.11154175 978.11834717 C-135.33524401 968.83345188 -188.80075183 951.23373637 -236.875 924.25 C-237.61733887 923.83476074 -238.35967773 923.41952148 -239.12451172 922.99169922 C-244.10624864 920.1816335 -249.00677477 917.25189698 -253.875 914.25 C-254.72416992 913.72680176 -255.57333984 913.20360352 -256.44824219 912.66455078 C-277.33550435 899.72669533 -297.21047673 885.52269339 -315.86677551 869.52435303 C-318.49028929 867.27516906 -321.1236094 865.04570567 -323.79370117 862.8515625 C-332.18098359 855.92599532 -339.94142736 848.49276553 -347.60595703 840.77978516 C-349.6296203 838.74535512 -351.66382558 836.72190599 -353.69921875 834.69921875 C-360.88723906 827.51853076 -367.5931706 820.24428031 -373.875 812.25 C-374.82151994 811.12481112 -375.77479253 810.0052245 -376.73828125 808.89453125 C-440.44744459 735.22763584 -479.20254528 639.5358923 -491.078125 510.0703125 C-491.08095238 509.4148431 -491.08377975 508.7593737 -491.08669281 508.0840416 C-491.10156585 504.5988299 -491.11086385 501.11365815 -491.11523438 497.62841797 C-491.11956823 494.82489646 -491.13327649 492.02169156 -491.15625 489.21826172 C-491.36743264 462.86207244 -489.64745819 436.94071918 -485.0625 410.9375 C-484.93494324 410.19549347 -484.80738647 409.45348694 -484.67596436 408.68899536 C-472.41448857 337.43695095 -444.72100627 270.75758489 -403.875 211.25 C-403.35550781 210.48816406 -402.83601563 209.72632813 -402.30078125 208.94140625 C-395.00533952 198.27018171 -387.19073994 188.14426096 -378.875 178.25 C-378.1010791 177.32743408 -378.1010791 177.32743408 -377.31152344 176.38623047 C-375.79654103 174.58604661 -374.27536142 172.7913953 -372.75 171 C-372.10514648 170.2416687 -372.10514648 170.2416687 -371.44726562 169.46801758 C-363.14428337 159.81625792 -354.39645147 150.58470164 -345.39550781 141.58520508 C-343.87013287 140.05762584 -342.35299328 138.52216418 -340.8359375 136.98632812 C-335.25798093 131.37731739 -329.54989874 126.15293373 -323.33544922 121.23681641 C-320.79589136 119.18611966 -318.39518821 117.02923025 -316 114.8125 C-300.4244035 100.67727998 -282.50763356 88.66099968 -264.875 77.25 C-264.26543457 76.85248535 -263.65586914 76.4549707 -263.02783203 76.04541016 C-251.3393795 68.45173577 -239.20005357 61.7491309 -226.875 55.25 C-225.99602051 54.7844873 -225.11704102 54.31897461 -224.21142578 53.83935547 C-168.99125861 24.80054161 -106.12593437 6.35233597 -43.875 1.25 C-42.85019531 1.16314941 -41.82539063 1.07629883 -40.76953125 0.98681641 C-27.19629633 -0.01640703 -13.60419402 0.00640826 0 0 Z M-193.16845703 71.00976562 C-195.57284501 72.11154183 -197.98517189 73.19229402 -200.40234375 74.265625 C-223.97900024 84.87110843 -247.34582293 98.51857973 -267.875 114.25 C-269.83314272 115.70858926 -271.79148545 117.16691005 -273.75 118.625 C-275.7928607 120.1650841 -277.8344912 121.70680114 -279.875 123.25 C-280.41447266 123.65508789 -280.95394531 124.06017578 -281.50976562 124.47753906 C-288.9555309 130.07279981 -296.0170467 135.93973047 -302.875 142.25 C-304.14196938 143.35859821 -305.41266556 144.4629553 -306.6875 145.5625 C-318.73683649 156.08445581 -330.7423567 167.01063457 -341.1171875 179.21484375 C-343.2276414 181.65828038 -345.42792879 184.00918821 -347.625 186.375 C-352.90211068 192.16305634 -357.70362401 198.26033965 -362.48388672 204.46044922 C-363.84967529 206.21742188 -365.23493324 207.9567393 -366.62890625 209.69140625 C-378.67245265 224.70996348 -388.95529295 240.76830293 -398.875 257.25 C-399.63514404 258.50441895 -399.63514404 258.50441895 -400.41064453 259.78417969 C-448.48921013 339.59679038 -467.79162742 435.03651636 -449.46484375 602.98828125 C-442.19046267 632.05431476 -432.14668835 659.93300155 -419.875 687.25 C-419.2557666 688.62937744 -419.2557666 688.62937744 -418.62402344 690.03662109 C-403.68989558 723.02085563 -383.85132897 754.28433202 -360.875 782.25 C-360.42560059 782.7970459 -359.97620117 783.3440918 -359.51318359 783.90771484 C-353.32144793 791.40412982 -346.86989184 798.63420794 -340.25439453 805.75732422 C-338.85731325 807.26913925 -337.47200462 808.79094604 -336.08984375 810.31640625 C-328.43722988 818.75455777 -320.65147378 827.01430982 -311.98046875 834.421875 C-309.51772972 836.5602087 -307.14012657 838.78084599 -304.75 841 C-298.95127642 846.28683626 -292.8417952 851.09307551 -286.62939453 855.88085938 C-284.97169058 857.17454206 -283.33993814 858.49382625 -281.71484375 859.828125 C-266.25706399 872.43716853 -249.22973712 883.42942926 -231.875 893.25 C-230.72209473 893.90548828 -230.72209473 893.90548828 -229.54589844 894.57421875 C-130.25722994 950.69557222 -15.66937864 969.16323248 123.86889648 939.88592529 C143.64684891 934.31113668 163.26838169 927.40635135 182.125 919.25 C182.8895752 918.92531738 183.65415039 918.60063477 184.44189453 918.26611328 C211.24617675 906.83998187 237.18205574 892.87789839 261.125 876.25 C261.75970215 875.81220215 262.3944043 875.3744043 263.04833984 874.92333984 C281.99985718 861.82964479 299.64302429 847.44806128 316.50195312 831.75537109 C318.29105943 830.09598037 320.0906293 828.44835062 321.890625 826.80078125 C328.17122286 821.02893376 334.27937132 815.24627306 339.88671875 808.8046875 C342.06506125 806.31841177 344.30076599 803.90069586 346.55932617 801.48779297 C352.35871679 795.28236361 357.85264389 788.91378872 363.125 782.25 C363.62725098 781.62561035 364.12950195 781.0012207 364.64697266 780.35791016 C417.53635163 714.5702061 450.502021 633.53765318 461.375 550.0625 C461.53830811 548.81041748 461.70161621 547.55833496 461.86987305 546.26831055 C464.06595533 528.60254264 464.36635079 511.09279126 464.375 493.3125 C464.37567474 492.0653421 464.37634949 490.8181842 464.37704468 489.53323364 C464.36048762 470.24271064 463.798975 451.37218218 461.125 432.25 C460.95339355 430.98124023 460.78178711 429.71248047 460.60498047 428.40527344 C457.9712692 409.39265535 454.08593385 390.78726958 449.125 372.25 C448.82754883 371.13737793 448.53009766 370.02475586 448.22363281 368.87841797 C435.04675253 320.45160226 413.77011219 273.49684362 385.125 232.25 C384.68720215 231.61529785 384.2494043 230.9805957 383.79833984 230.32666016 C370.83071382 211.55761227 356.58002488 194.0297413 341.125 177.25 C340.2585083 176.30785645 340.2585083 176.30785645 339.37451172 175.34667969 C330.95697335 166.21973871 322.39689117 157.50579351 313.125 149.25 C311.66110342 147.88029516 310.19722872 146.51056368 308.73583984 145.13818359 C302.41810577 139.23568015 295.75025987 133.89102942 288.8984375 128.625 C287.14707101 127.26711233 285.41488951 125.88822171 283.6875 124.5 C262.16199933 107.2342116 238.52171543 93.06044613 214.125 80.25 C213.24263672 79.78352051 212.36027344 79.31704102 211.45117188 78.83642578 C119.77206143 30.65261074 11.30410832 17.58631384 -193.16845703 71.00976562 Z " fill="#FFAC0A" transform="translate(498.875,7.75)"/>
<path d="M0 0 C0.76119141 0.13921875 1.52238281 0.2784375 2.30664062 0.421875 C29.70870881 5.65516123 53.47980472 18.79294936 75.625 35.3359375 C80.19727524 38.53953825 83.29812398 39.7127345 89 39 C97.74327635 32.00537892 98.36911297 15.42779282 100 5 C104.62 5 109.24 5 114 5 C114.05065175 18.40985097 113.94803841 31.80327111 113.62960815 45.20925903 C113.06241391 69.32468686 112.74101372 93.44264074 112.4375 117.5625 C112.4263982 118.44277485 112.4152964 119.3230497 112.40385818 120.22999954 C112.26623514 131.1532971 112.1318418 142.0766312 112 153 C107.38 153 102.76 153 98 153 C96.65041144 150.30082288 96.54633314 147.83467878 96.203125 144.83203125 C95.97616943 142.91994873 95.97616943 142.91994873 95.74462891 140.96923828 C95.66448547 140.29121155 95.58434204 139.61318481 95.50177002 138.91461182 C90.89417926 100.44430067 81.72797437 63.92296343 50.16210938 38.52099609 C26.93266579 20.9875902 -3.20796631 14.24263113 -31.88964844 17.94775391 C-50.12410195 20.66492452 -67.20932356 28.55339143 -80 42 C-80.49757813 42.45375 -80.99515625 42.9075 -81.5078125 43.375 C-112.34258478 72.0585091 -122.37758283 119.20175026 -128 159 C-128.15243164 160.03882324 -128.30486328 161.07764648 -128.46191406 162.14794922 C-131.1233914 181.1203163 -131.2898947 200.05761151 -131.3125 219.1875 C-131.31608521 220.40242126 -131.31967041 221.61734253 -131.32336426 222.86907959 C-131.35978391 245.84019405 -130.27381154 268.7759202 -127.25 291.5625 C-126.99621582 293.47881226 -126.99621582 293.47881226 -126.73730469 295.43383789 C-121.18243369 335.33172348 -109.77498877 378.92061558 -76.76171875 405.02734375 C-72.71711216 407.91634846 -68.58407276 410.09873704 -64 412 C-63.29617188 412.29519531 -62.59234375 412.59039063 -61.8671875 412.89453125 C-47.43635196 418.29943829 -29.76150802 419.07276668 -15.3125 413.4375 C-7.73073711 409.75192082 -2.98441951 405.36258033 -0.125 397.375 C1.56747029 391.61203154 2.12644455 385.97696732 2.14526367 379.98266602 C2.14862228 379.30672394 2.1519809 378.63078186 2.15544128 377.93435669 C2.1649053 375.70752086 2.16689368 373.48076093 2.16796875 371.25390625 C2.17119001 369.68090282 2.17455471 368.10789968 2.17805481 366.53489685 C2.18403875 363.23053294 2.18589602 359.92619512 2.18530273 356.62182617 C2.1852222 353.27932233 2.19204567 349.93695765 2.20581055 346.59448242 C2.35444397 323.69710576 2.35444397 323.69710576 1.17578125 300.83984375 C1.10642868 299.97927872 1.03707611 299.11871368 0.96562195 298.23207092 C-0.11541106 287.28888901 -2.87665396 274.42741781 -11.1875 266.625 C-22.82068436 257.81949798 -39.35299651 256.88315244 -53.4375 256.2109375 C-56 256 -56 256 -57 255 C-57 251.04 -57 247.08 -57 243 C10.32 243 77.64 243 147 243 C147 246.96 147 250.92 147 255 C146.04738281 255.23074219 145.09476563 255.46148437 144.11328125 255.69921875 C142.85902344 256.02535156 141.60476563 256.35148437 140.3125 256.6875 C139.07113281 257.00074219 137.82976562 257.31398438 136.55078125 257.63671875 C131.84877171 259.44200074 129.04942723 261.76811956 126.890625 266.359375 C126.67921875 267.14828125 126.4678125 267.9371875 126.25 268.75 C126.02828125 269.52859375 125.8065625 270.3071875 125.578125 271.109375 C123.87349273 279.63253637 123.83400164 288.12208111 123.79467773 296.78149414 C123.78508035 298.15226524 123.77506924 299.5230335 123.76467896 300.89379883 C123.73782507 304.58941067 123.71671086 308.28503503 123.69667697 311.98068929 C123.67469588 315.85241891 123.64736693 319.72411083 123.62062073 323.59580994 C123.57085677 330.91596994 123.52585801 338.23615106 123.48259836 345.55635208 C123.43308603 353.8950002 123.37822014 362.23361045 123.32291877 370.57222188 C123.20934915 387.71477973 123.10264626 404.85737338 123 422 C118.71 422 114.42 422 110 422 C109.85304688 420.98421875 109.70609375 419.9684375 109.5546875 418.921875 C108.24524182 410.64452384 106.41910427 403.77574774 102.3046875 396.35546875 C101 394 101 394 100 391 C92.44395407 388.12820256 83.943135 390.12291335 76.625 392.6875 C75.73707764 392.99002686 74.84915527 393.29255371 73.93432617 393.60424805 C64.92430226 396.80399034 56.36174748 400.91311689 47.73461914 405.01269531 C19.90375698 418.16339684 -11.03314855 430.03432333 -42.23828125 430.203125 C-43.10824738 430.21018463 -43.9782135 430.21724426 -44.87454224 430.22451782 C-103.827155 430.59333605 -160.9211781 420.14308227 -207 381 C-208.08310825 380.14554794 -209.16640149 379.29133024 -210.25 378.4375 C-213.86553036 375.23282536 -216.89308327 371.69138621 -220 368 C-220.76441406 367.1234375 -221.52882812 366.246875 -222.31640625 365.34375 C-232.93197642 352.98383731 -241.16047616 339.77139234 -248 325 C-248.78310547 323.34291016 -248.78310547 323.34291016 -249.58203125 321.65234375 C-275.18278318 264.97943908 -276.20730327 191.83631106 -254.83349609 133.83447266 C-250.15768193 121.68851085 -244.99637885 109.99227815 -238 99 C-237.36578125 97.99324219 -236.7315625 96.98648438 -236.078125 95.94921875 C-228.11562618 83.67104556 -219.08577397 72.56604893 -209 62 C-208.19949219 61.14664063 -207.39898437 60.29328125 -206.57421875 59.4140625 C-199.93886415 52.52893187 -192.63783272 46.71507022 -185 41 C-184.16855469 40.37351563 -183.33710938 39.74703125 -182.48046875 39.1015625 C-151.53448748 16.64332055 -114.6122941 4.12516356 -77 -1 C-76.15066895 -1.11859375 -75.30133789 -1.2371875 -74.42626953 -1.359375 C-50.02213631 -4.62297252 -24.20825772 -4.48229512 0 0 Z " fill="#FFAC0A" transform="translate(418,181)"/>
<path d="M0 0 C2.1246167 0.0707373 4.2492334 0.14147461 6.43823242 0.21435547 C33.54070041 1.07130393 60.63078659 1.15923625 87.74490738 1.12857056 C91.35226776 1.1249602 94.95962411 1.1233732 98.56698608 1.12231445 C133.71999679 1.10948522 168.85750112 0.92099948 204 0 C204 4.29 204 8.58 204 13 C201.77443359 13.25523437 201.77443359 13.25523437 199.50390625 13.515625 C197.52334598 13.75967508 195.54288213 14.00450854 193.5625 14.25 C192.10166992 14.41435547 192.10166992 14.41435547 190.61132812 14.58203125 C182.79088544 15.57593366 175.93510377 17.19250944 170.125 22.75 C159.0053972 39.75645134 162.8626804 66.32053109 162.90234375 85.72363281 C162.90483641 88.49678518 162.90578047 91.26993756 162.9067688 94.04309082 C162.90963773 99.98775084 162.91604841 105.93239822 162.92483521 111.87705231 C162.9374887 120.50327372 162.9434893 129.12949057 162.94776857 137.75571975 C162.9548171 151.79776214 162.96559984 165.83979872 162.97949219 179.88183594 C162.98032 180.71993123 162.98114781 181.55802653 162.98200071 182.42151865 C162.98873757 189.21288208 162.99565764 196.00424531 163.00260353 202.79560852 C163.00865329 208.71497591 163.01463558 214.63434337 163.02050781 220.55371094 C163.02133594 221.38712868 163.02216407 222.22054642 163.02301729 223.07921925 C163.03678361 237.05927918 163.04650012 251.03933922 163.05341816 265.01940417 C163.05785739 273.60452075 163.06580844 282.18961959 163.07856297 290.77472791 C163.08709826 296.67806625 163.09190418 302.58140059 163.09398818 308.4847447 C163.09531053 311.87066611 163.09875653 315.25654677 163.10574722 318.64246368 C163.33253092 432.21386529 163.33253092 432.21386529 130 472 C129.44699219 472.68835938 128.89398437 473.37671875 128.32421875 474.0859375 C123.53131412 479.87402758 117.94445851 484.43319449 112 489 C110.98292969 489.7940625 109.96585938 490.588125 108.91796875 491.40625 C71.68478014 519.69964763 19.12468412 530.63744869 -27 528 C-28 527 -28 527 -28.09765625 524.27734375 C-28.08605469 523.17519531 -28.07445312 522.07304688 -28.0625 520.9375 C-28.05347656 519.83277344 -28.04445313 518.72804688 -28.03515625 517.58984375 C-28.02355469 516.73519531 -28.01195312 515.88054688 -28 515 C-23.70730222 513.50148202 -19.42086359 512.36531342 -15 511.3125 C-0.15917719 507.50044913 13.86161425 499.98951632 22.34765625 486.87109375 C41.04981386 454.37443691 41.31725121 416.36278123 41.26144934 379.90965736 C41.25687115 375.47412835 41.26393465 371.03861428 41.26940918 366.60308838 C41.27824675 357.94442507 41.27640697 349.28579667 41.2705839 340.62713207 C41.26604708 333.58684673 41.26546318 326.5465711 41.26763153 319.50628471 C41.26809123 317.99710555 41.26809123 317.99710555 41.26856022 316.45743791 C41.26919973 314.41292536 41.26984816 312.36841282 41.2705054 310.32390027 C41.27619163 291.20902732 41.26967663 272.09417363 41.25890467 252.97930383 C41.24996114 236.60199697 41.25153112 220.22471846 41.26074219 203.84741211 C41.27145856 184.78500018 41.2756525 165.72260505 41.26951766 146.66019052 C41.26888062 144.62579533 41.26825187 142.59140013 41.26763153 140.55700493 C41.26732298 139.55626939 41.26701443 138.55553386 41.26669653 137.524473 C41.2649744 130.49459858 41.26787405 123.46473489 41.27259064 116.43486214 C41.27821426 107.86565061 41.27665154 99.2964757 41.26602915 90.72726835 C41.26079383 86.36091799 41.25867913 81.99462856 41.26532745 77.62827873 C41.271333 73.62340962 41.26793678 69.61865734 41.25737235 65.61379867 C41.25515781 64.17340736 41.25623022 62.73300596 41.26112393 61.29262126 C41.3016108 48.37450941 41.25740922 34.56762984 34.3125 23.25 C25.5251423 14.70013846 11.57429873 14.62739811 0 13 C0 8.71 0 4.42 0 0 Z " fill="#FFAC0A" transform="translate(567,366)"/>
</svg>
